<svg width="49" height="48" viewBox="0 0 49 48" fill="none" xmlns="http://www.w3.org/2000/svg">
<mask id="mask0_2_138" style="mask-type:luminance" maskUnits="userSpaceOnUse" x="2" y="6" width="45" height="36">
<path d="M42.5 8H6.5C5.96957 8 5.46086 8.21071 5.08579 8.58579C4.71071 8.96086 4.5 9.46957 4.5 10V38C4.5 38.5304 4.71071 39.0391 5.08579 39.4142C5.46086 39.7893 5.96957 40 6.5 40H42.5C43.0304 40 43.5391 39.7893 43.9142 39.4142C44.2893 39.0391 44.5 38.5304 44.5 38V10C44.5 9.46957 44.2893 8.96086 43.9142 8.58579C43.5391 8.21071 43.0304 8 42.5 8Z" fill="white" stroke="white" stroke-width="4"/>
<path d="M24.5 17V31M32.5 24V31M16.5 22V31" stroke="black" stroke-width="4" stroke-linecap="round"/>
</mask>
<g mask="url(#mask0_2_138)">
<path d="M0.5 0H48.5V48H0.5V0Z" fill="#fff"/>
</g>
</svg>
