<svg width="49" height="48" viewBox="0 0 49 48" fill="none" xmlns="http://www.w3.org/2000/svg">
<path d="M24.5 22C25.6 22 26.542 21.6087 27.326 20.826C28.11 20.0433 28.5013 19.1013 28.5 18C28.5 16.9 28.1087 15.9587 27.326 15.176C26.5433 14.3933 25.6013 14.0013 24.5 14C23.4 14 22.4587 14.392 21.676 15.176C20.8933 15.96 20.5013 16.9013 20.5 18C20.5 19.1 20.892 20.042 21.676 20.826C22.46 21.61 23.4013 22.0013 24.5 22ZM14.5 21.6V14H10.5V16C10.5 17.2667 10.8667 18.4087 11.6 19.426C12.3333 20.4433 13.3 21.168 14.5 21.6ZM34.5 21.6C35.7 21.1667 36.6667 20.4413 37.4 19.424C38.1333 18.4067 38.5 17.2653 38.5 16V14H34.5V21.6ZM22.5 38V31.8C20.8667 31.4333 19.4087 30.742 18.126 29.726C16.8433 28.71 15.9013 27.4347 15.3 25.9C12.8 25.6 10.7087 24.5087 9.026 22.626C7.34333 20.7433 6.50133 18.5347 6.5 16V14C6.5 12.9 6.892 11.9587 7.676 11.176C8.46 10.3933 9.40133 10.0013 10.5 10H14.5C14.5 8.9 14.892 7.95867 15.676 7.176C16.46 6.39333 17.4013 6.00133 18.5 6H30.5C31.6 6 32.542 6.392 33.326 7.176C34.11 7.96 34.5013 8.90133 34.5 10H38.5C39.6 10 40.542 10.392 41.326 11.176C42.11 11.96 42.5013 12.9013 42.5 14V16C42.5 18.5333 41.658 20.742 39.974 22.626C38.29 24.51 36.1987 25.6013 33.7 25.9C33.1 27.4333 32.1587 28.7087 30.876 29.726C29.5933 30.7433 28.1347 31.4347 26.5 31.8V38H32.5C33.0667 38 33.542 38.192 33.926 38.576C34.31 38.96 34.5013 39.4347 34.5 40C34.5 40.5667 34.308 41.042 33.924 41.426C33.54 41.81 33.0653 42.0013 32.5 42H16.5C15.9333 42 15.4587 41.808 15.076 41.424C14.6933 41.04 14.5013 40.5653 14.5 40C14.5 39.4333 14.692 38.9587 15.076 38.576C15.46 38.1933 15.9347 38.0013 16.5 38H22.5Z" fill="white"/>
</svg>
