<svg width="49" height="48" viewBox="0 0 49 48" fill="none" xmlns="http://www.w3.org/2000/svg">
<path d="M24.5 16H8.5C7.43913 16 6.42172 16.4214 5.67157 17.1716C4.92143 17.9217 4.5 18.9391 4.5 20V28C4.5 29.0609 4.92143 30.0783 5.67157 30.8284C6.42172 31.5786 7.43913 32 8.5 32H10.5V40C10.5 40.5304 10.7107 41.0391 11.0858 41.4142C11.4609 41.7893 11.9696 42 12.5 42H16.5C17.0304 42 17.5391 41.7893 17.9142 41.4142C18.2893 41.0391 18.5 40.5304 18.5 40V32H24.5L34.5 40V8L24.5 16ZM43.5 24C43.5 27.42 41.58 30.52 38.5 32V16C41.56 17.5 43.5 20.6 43.5 24Z" fill="white"/>
</svg>
